<svg width="49" height="46" viewBox="0 0 49 46" fill="none" xmlns="http://www.w3.org/2000/svg">
<path d="M24.5 25.7408C25.3365 25.7408 26.1649 25.5861 26.9377 25.2856C27.7105 24.9851 28.4128 24.5446 29.0043 23.9893C29.5958 23.434 30.065 22.7748 30.3851 22.0493C30.7052 21.3237 30.87 20.5461 30.87 19.7608C30.87 18.9755 30.7052 18.1979 30.3851 17.4724C30.065 16.7468 29.5958 16.0876 29.0043 15.5323C28.4128 14.977 27.7105 14.5365 26.9377 14.236C26.1649 13.9355 25.3365 13.7808 24.5 13.7808C22.8106 13.7808 21.1903 14.4109 19.9957 15.5323C18.8011 16.6538 18.13 18.1748 18.13 19.7608C18.13 21.3468 18.8011 22.8679 19.9957 23.9893C21.1903 25.1108 22.8106 25.7408 24.5 25.7408V25.7408Z" stroke="black" stroke-width="1.5"/>
<path d="M7.39089 16.2725C11.413 -0.325849 37.6076 -0.306682 41.6092 16.2917C43.9571 26.0283 37.5055 34.27 31.8501 39.3683C29.8739 41.1576 27.2354 42.1574 24.4898 42.1574C21.7443 42.1574 19.1058 41.1576 17.1296 39.3683C11.4946 34.27 5.04297 26.0092 7.39089 16.2725V16.2725Z" stroke="black" stroke-width="1.5"/>
</svg>
