<svg width="39" height="39" viewBox="0 0 39 39" fill="none" xmlns="http://www.w3.org/2000/svg">
<path d="M29.4775 35.1325C28.0475 35.555 26.3575 35.75 24.375 35.75H14.625C12.6425 35.75 10.9525 35.555 9.52246 35.1325C9.87996 30.9075 14.2187 27.5762 19.5 27.5762C24.7812 27.5762 29.12 30.9075 29.4775 35.1325V35.1325Z" stroke="black" stroke-width="1.5" stroke-linecap="round" stroke-linejoin="round"/>
<path d="M24.375 3.25H14.625C6.5 3.25 3.25 6.5 3.25 14.625V24.375C3.25 30.5175 5.1025 33.8813 9.5225 35.1325C9.88 30.9075 14.2188 27.5762 19.5 27.5762C24.7812 27.5762 29.12 30.9075 29.4775 35.1325C33.8975 33.8813 35.75 30.5175 35.75 24.375V14.625C35.75 6.5 32.5 3.25 24.375 3.25ZM19.5 23.0263C16.2825 23.0263 13.6825 20.41 13.6825 17.1925C13.6825 13.975 16.2825 11.375 19.5 11.375C22.7175 11.375 25.3175 13.975 25.3175 17.1925C25.3175 20.41 22.7175 23.0263 19.5 23.0263Z" stroke="black" stroke-width="1.5" stroke-linecap="round" stroke-linejoin="round"/>
<path d="M25.3176 17.1925C25.3176 20.41 22.7176 23.0263 19.5001 23.0263C16.2826 23.0263 13.6826 20.41 13.6826 17.1925C13.6826 13.975 16.2826 11.375 19.5001 11.375C22.7176 11.375 25.3176 13.975 25.3176 17.1925Z" stroke="black" stroke-width="1.5" stroke-linecap="round" stroke-linejoin="round"/>
</svg>
