<svg width="38" height="38" viewBox="0 0 38 38" fill="none" xmlns="http://www.w3.org/2000/svg">
<path d="M22.1665 12.6667H30.0832M23.7498 19H30.0832M26.9165 25.3333H30.0832M26.9165 33.25H11.0832C4.74984 33.25 3.1665 31.6667 3.1665 25.3333V12.6667C3.1665 6.33333 4.74984 4.75 11.0832 4.75H26.9165C33.2498 4.75 34.8332 6.33333 34.8332 12.6667V25.3333C34.8332 31.6667 33.2498 33.25 26.9165 33.25Z" stroke="black" stroke-width="1.5" stroke-linecap="round" stroke-linejoin="round"/>
<path d="M18.9998 25.8558C18.8933 24.7444 18.4011 23.7053 17.6087 22.9187C16.8164 22.1321 15.7737 21.6476 14.6615 21.5492C13.8612 21.47 13.0551 21.47 12.2548 21.5492C11.1437 21.6506 10.1027 22.136 9.31093 22.9221C8.51913 23.7081 8.02604 24.7455 7.9165 25.8558M13.4582 17.8758C14.2182 17.8758 14.9472 17.5739 15.4846 17.0364C16.0221 16.499 16.324 15.7701 16.324 15.01C16.324 14.2499 16.0221 13.521 15.4846 12.9835C14.9472 12.4461 14.2182 12.1442 13.4582 12.1442C12.6981 12.1442 11.9692 12.4461 11.4317 12.9835C10.8943 13.521 10.5923 14.2499 10.5923 15.01C10.5923 15.7701 10.8943 16.499 11.4317 17.0364C11.9692 17.5739 12.6981 17.8758 13.4582 17.8758V17.8758Z" stroke="black" stroke-width="1.5" stroke-linecap="round" stroke-linejoin="round"/>
</svg>
